<?xml version="1.0" encoding="utf-8"?>
<svg version="1.1" id="Art" xmlns="http://www.w3.org/2000/svg" xmlns:xlink="http://www.w3.org/1999/xlink" x="0px" y="0px"
	 viewBox="0 0 750 500" style="enable-background:new 0 0 750 500;" xml:space="preserve">
<style type="text/css">
	.st0{fill:#222028;}
	.st1{fill:#B7BED0;}
	.st2{fill:url(#SVGID_1_);}
	.st3{fill:url(#SVGID_2_);}
	.st4{fill:url(#SVGID_3_);}
	.st5{fill:url(#SVGID_4_);}
	.st6{opacity:0.24;fill:#004887;enable-background:new    ;}
	.st7{opacity:0.56;fill:url(#SVGID_5_);enable-background:new    ;}
	.st8{opacity:0.56;fill:url(#SVGID_6_);enable-background:new    ;}
	.st9{opacity:0.56;fill:url(#SVGID_7_);enable-background:new    ;}
	.st10{opacity:0.56;fill:url(#SVGID_8_);enable-background:new    ;}
	.st11{fill:url(#SVGID_9_);}
	.st12{opacity:0.56;fill:url(#SVGID_10_);enable-background:new    ;}
	.st13{opacity:0.56;fill:url(#SVGID_11_);enable-background:new    ;}
	.st14{fill:url(#SVGID_12_);}
	.st15{opacity:0.31;fill:url(#SVGID_13_);enable-background:new    ;}
	.st16{opacity:0.22;fill:url(#SVGID_14_);enable-background:new    ;}
	.st17{fill:#1D084B;}
	.st18{opacity:0.48;fill:url(#SVGID_15_);}
	.st19{opacity:0.24;fill:url(#SVGID_16_);enable-background:new    ;}
	.st20{opacity:0.24;fill:url(#SVGID_17_);enable-background:new    ;}
	.st21{opacity:6.000000e-02;fill:url(#SVGID_18_);enable-background:new    ;}
	.st22{opacity:0.32;fill:url(#SVGID_19_);enable-background:new    ;}
	.st23{opacity:0.24;fill:url(#SVGID_20_);enable-background:new    ;}
	.st24{opacity:0.24;fill:url(#SVGID_21_);enable-background:new    ;}
	.st25{opacity:0.24;fill:url(#SVGID_22_);enable-background:new    ;}
	.st26{opacity:0.24;fill:url(#SVGID_23_);enable-background:new    ;}
	.st27{fill:url(#SVGID_24_);}
	.st28{fill:url(#SVGID_25_);}
	.st29{fill:url(#SVGID_26_);}
	.st30{fill:url(#SVGID_27_);}
	.st31{opacity:0.35;}
	.st32{fill:url(#SVGID_28_);}
	.st33{opacity:0.31;fill:url(#SVGID_29_);enable-background:new    ;}
	.st34{fill:url(#SVGID_30_);}
	.st35{opacity:0.24;fill:url(#SVGID_31_);enable-background:new    ;}
	.st36{opacity:0.24;fill:url(#SVGID_32_);enable-background:new    ;}
</style>
<rect class="st0" width="750" height="500"/>
<polygon class="st1" points="59.4,319.9 60.3,321.5 62,322.4 60.3,323.3 59.4,325 58.5,323.3 56.9,322.4 58.5,321.5 "/>
<polygon class="st1" points="25.4,172.9 26.3,174.5 28,175.4 26.3,176.3 25.4,178 24.5,176.3 22.9,175.4 24.5,174.5 "/>
<polygon class="st1" points="26.4,39.9 27.3,41.5 29,42.4 27.3,43.3 26.4,45 25.5,43.3 23.9,42.4 25.5,41.5 "/>
<linearGradient id="SVGID_1_" gradientUnits="userSpaceOnUse" x1="539.53" y1="104.1563" x2="623.3531" y2="-1.461" gradientTransform="matrix(1 0 0 -1 0 502)">
	<stop  offset="2.475250e-03" style="stop-color:#CB1B5E"/>
	<stop  offset="0.5792" style="stop-color:#300D5D"/>
	<stop  offset="1" style="stop-color:#2D0D53;stop-opacity:0"/>
</linearGradient>
<path class="st2" d="M609.1,464.2c-14.5,20.8-43.1,26-63.9,11.5c-20.8-14.5-26-43.1-11.5-63.9s43.1-26,63.9-11.5
	C618.4,414.8,623.6,443.4,609.1,464.2z"/>
<linearGradient id="SVGID_2_" gradientUnits="userSpaceOnUse" x1="143.1133" y1="275.3787" x2="211.9819" y2="188.6043" gradientTransform="matrix(1 0 0 -1 0 502)">
	<stop  offset="0" style="stop-color:#300D5D"/>
	<stop  offset="1" style="stop-color:#2D0D53;stop-opacity:0"/>
</linearGradient>
<path class="st3" d="M200.3,281.1c-11.9,17.1-35.4,21.3-52.5,9.5c-17.1-11.9-21.3-35.4-9.5-52.5c11.9-17.1,35.4-21.3,52.5-9.5
	C208,240.5,212.2,264,200.3,281.1z"/>
<g>

		<linearGradient id="SVGID_3_" gradientUnits="userSpaceOnUse" x1="282.6686" y1="154.6023" x2="343.0994" y2="154.6023" gradientTransform="matrix(0.9909 0.1343 0.1343 -0.9909 -62.0166 561.1662)">
		<stop  offset="0" style="stop-color:#300D5D"/>
		<stop  offset="1" style="stop-color:#2D0D53;stop-opacity:0"/>
	</linearGradient>
	<path class="st4" d="M302.2,428.4l-57,48.1c-2.6,2.1-6.4,1.6-8.5-1l0,0c-2.1-2.6-1.6-6.4,1-8.5l59.7-44.7L302.2,428.4z"/>

		<linearGradient id="SVGID_4_" gradientUnits="userSpaceOnUse" x1="284.7682" y1="151.2887" x2="333.5185" y2="151.2887" gradientTransform="matrix(0.9909 0.1343 0.1343 -0.9909 -62.0166 561.1662)">
		<stop  offset="0" style="stop-color:#00BFA7"/>
		<stop  offset="7.458021e-02" style="stop-color:#00AAA1"/>
		<stop  offset="0.2276" style="stop-color:#007593"/>
		<stop  offset="0.3441" style="stop-color:#004887"/>
		<stop  offset="0.6312" style="stop-color:#420C60;stop-opacity:0.77"/>
		<stop  offset="1" style="stop-color:#2D0D53;stop-opacity:0"/>
	</linearGradient>
	<path class="st5" d="M291.8,433.8l-49.2,40.4c-1.4,1.1-3.3,0.9-4.4-0.5l0,0c-1.1-1.4-0.9-3.3,0.5-4.4l50.6-38.6L291.8,433.8z"/>
	<polygon class="st6" points="240.7,469.5 241.3,471.2 243,471.7 241.6,472.7 241.6,474.5 240.2,473.5 238.5,474.1 239.1,472.4
		238,471 239.7,471 	"/>
</g>
<polygon class="st1" points="393.8,451.1 395.3,454 398.2,455.6 395.3,457.2 393.8,460 392.2,457.2 389.3,455.6 392.2,454 "/>
<polygon class="st1" points="313.2,365.8 314.2,367.5 315.9,368.5 314.2,369.4 313.2,371.1 312.3,369.4 310.5,368.5 312.3,367.5 "/>
<polygon class="st1" points="214.7,433.2 215.7,434.9 217.4,435.9 215.7,436.8 214.7,438.6 213.8,436.8 212,435.9 213.8,434.9 "/>
<polygon class="st1" points="661.4,56.5 662.3,58.2 664,59.2 662.3,60.1 661.4,61.8 660.4,60.1 658.7,59.2 660.4,58.2 "/>
<polygon class="st1" points="720.4,132.5 721.3,134.2 723,135.2 721.3,136.1 720.4,137.8 719.4,136.1 717.7,135.2 719.4,134.2 "/>
<polygon class="st1" points="728.4,355.5 729.3,357.2 731,358.2 729.3,359.1 728.4,360.8 727.4,359.1 725.7,358.2 727.4,357.2 "/>
<polygon class="st1" points="574.4,358.5 575.3,360.2 577,361.2 575.3,362.1 574.4,363.8 573.4,362.1 571.7,361.2 573.4,360.2 "/>
<polygon class="st1" points="667.4,414.5 668.3,416.2 670,417.2 668.3,418.1 667.4,419.8 666.4,418.1 664.7,417.2 666.4,416.2 "/>
<polygon class="st1" points="122.4,15.5 123.3,17.2 125,18.2 123.3,19.1 122.4,20.8 121.4,19.1 119.7,18.2 121.4,17.2 "/>
<polygon class="st1" points="484.2,30.3 485.1,32.1 486.9,33 485.1,33.9 484.2,35.7 483.2,33.9 481.5,33 483.2,32.1 "/>
<polygon class="st1" points="102.4,227.9 103.3,229.5 105,230.4 103.3,231.3 102.4,233 101.5,231.3 99.9,230.4 101.5,229.5 "/>
<linearGradient id="SVGID_5_" gradientUnits="userSpaceOnUse" x1="265.1844" y1="246.5423" x2="275.598" y2="233.913" gradientTransform="matrix(1 0 0 -1 0 502)">
	<stop  offset="2.475250e-03" style="stop-color:#CB1B5E"/>
	<stop  offset="0.5792" style="stop-color:#300D5D"/>
	<stop  offset="1" style="stop-color:#2D0D53;stop-opacity:0"/>
</linearGradient>
<polygon class="st7" points="268.6,256 269.9,258.3 272.2,259.6 269.9,260.9 268.6,263.2 267.3,260.9 265,259.6 267.3,258.3 "/>
<linearGradient id="SVGID_6_" gradientUnits="userSpaceOnUse" x1="24.5844" y1="67.445" x2="34.998" y2="54.8157" gradientTransform="matrix(1 0 0 -1 0 502)">
	<stop  offset="2.475250e-03" style="stop-color:#CB1B5E"/>
	<stop  offset="0.5792" style="stop-color:#300D5D"/>
	<stop  offset="1" style="stop-color:#2D0D53;stop-opacity:0"/>
</linearGradient>
<polygon class="st8" points="28,435.1 29.3,437.4 31.6,438.7 29.3,440 28,442.3 26.7,440 24.4,438.7 26.7,437.4 "/>
<linearGradient id="SVGID_7_" gradientUnits="userSpaceOnUse" x1="242.9991" y1="457.5246" x2="253.412" y2="444.8962" gradientTransform="matrix(1 0 0 -1 0 502)">
	<stop  offset="2.475250e-03" style="stop-color:#CB1B5E"/>
	<stop  offset="0.5792" style="stop-color:#300D5D"/>
	<stop  offset="1" style="stop-color:#2D0D53;stop-opacity:0"/>
</linearGradient>
<polygon class="st9" points="246.3,45 247.6,47.4 250,48.6 247.6,49.9 246.3,52.3 245.1,49.9 242.8,48.6 245.1,47.4 "/>
<linearGradient id="SVGID_8_" gradientUnits="userSpaceOnUse" x1="484.5" y1="40.8309" x2="501.3857" y2="20.3525" gradientTransform="matrix(1 0 0 -1 0 502)">
	<stop  offset="2.475250e-03" style="stop-color:#CB1B5E"/>
	<stop  offset="0.5792" style="stop-color:#300D5D"/>
	<stop  offset="1" style="stop-color:#2D0D53;stop-opacity:0"/>
</linearGradient>
<polygon class="st10" points="490,462.1 492.1,465.8 495.9,467.9 492.1,470 490,473.8 488,470 484.2,467.9 488,465.8 "/>
<linearGradient id="SVGID_9_" gradientUnits="userSpaceOnUse" x1="507.0748" y1="156.9789" x2="521.9095" y2="144.5951" gradientTransform="matrix(1 0 0 -1 0 502)">
	<stop  offset="2.475250e-03" style="stop-color:#486BED"/>
	<stop  offset="7.658952e-02" style="stop-color:#4359D1"/>
	<stop  offset="0.2176" style="stop-color:#3B3AA2"/>
	<stop  offset="0.3424" style="stop-color:#362480"/>
	<stop  offset="0.4449" style="stop-color:#32166B"/>
	<stop  offset="0.5124" style="stop-color:#311163"/>
	<stop  offset="0.7697" style="stop-color:#30105D;stop-opacity:0.4724"/>
	<stop  offset="1" style="stop-color:#2D0D53;stop-opacity:0"/>
</linearGradient>
<polygon class="st11" points="512.5,345.1 514.1,348 517,349.5 514.1,351.1 512.5,354 511,351.1 508.1,349.5 511,348 "/>
<linearGradient id="SVGID_10_" gradientUnits="userSpaceOnUse" x1="735.4826" y1="518.4455" x2="737.7357" y2="443.3427" gradientTransform="matrix(1 0 0 -1 0 502)">
	<stop  offset="2.475250e-03" style="stop-color:#CB1B5E"/>
	<stop  offset="0.5792" style="stop-color:#300D5D"/>
	<stop  offset="1" style="stop-color:#2D0D53;stop-opacity:0"/>
</linearGradient>
<circle class="st12" cx="736.6" cy="20.8" r="15.5"/>
<linearGradient id="SVGID_11_" gradientUnits="userSpaceOnUse" x1="369.671" y1="219.1338" x2="371.3427" y2="163.4123" gradientTransform="matrix(1 0 0 -1 0 502)">
	<stop  offset="2.475250e-03" style="stop-color:#CB1B5E"/>
	<stop  offset="0.5792" style="stop-color:#300D5D"/>
	<stop  offset="1" style="stop-color:#2D0D53;stop-opacity:0"/>
</linearGradient>
<circle class="st13" cx="370.5" cy="310.5" r="11.5"/>
<g>

		<linearGradient id="SVGID_12_" gradientUnits="userSpaceOnUse" x1="132.7868" y1="118.7557" x2="165.6508" y2="118.7557" gradientTransform="matrix(0.9883 0.1525 0.1525 -0.9883 -63.1411 569.4728)">
		<stop  offset="0" style="stop-color:#300D5D"/>
		<stop  offset="1" style="stop-color:#2D0D53;stop-opacity:0"/>
	</linearGradient>
	<path class="st14" d="M120.8,463.4L89.3,489c-1.4,1.1-3.5,0.8-4.6-0.6l0,0c-1.1-1.4-0.8-3.5,0.6-4.6l33-23.7L120.8,463.4z"/>
	<polygon class="st1" points="87.7,483.2 88.8,485.1 90.7,486.1 88.8,487.1 87.7,489 86.7,487.1 84.8,486.1 86.7,485.1 	"/>

		<linearGradient id="SVGID_13_" gradientUnits="userSpaceOnUse" x1="87.3338" y1="24.278" x2="109.9705" y2="24.278" gradientTransform="matrix(1 0 0 -1 0 502)">
		<stop  offset="0" style="stop-color:#B7BED0"/>
		<stop  offset="4.929113e-02" style="stop-color:#ABAEC5;stop-opacity:0.9507"/>
		<stop  offset="0.22" style="stop-color:#857EA3;stop-opacity:0.78"/>
		<stop  offset="0.3894" style="stop-color:#655586;stop-opacity:0.6106"/>
		<stop  offset="0.5545" style="stop-color:#4D3670;stop-opacity:0.4455"/>
		<stop  offset="0.714" style="stop-color:#3B1F60;stop-opacity:0.286"/>
		<stop  offset="0.8653" style="stop-color:#311256;stop-opacity:0.1347"/>
		<stop  offset="1" style="stop-color:#2D0D53;stop-opacity:0"/>
	</linearGradient>
	<path class="st15" d="M109,468.8c-0.5,0-21.7,14.9-21.7,14.9l0.5,2.9h2.4l19.7-16.9L109,468.8z"/>
</g>
<linearGradient id="SVGID_14_" gradientUnits="userSpaceOnUse" x1="515.0905" y1="116.5664" x2="622.018" y2="14.9098" gradientTransform="matrix(1 0 0 -1 0 502)">
	<stop  offset="2.475250e-03" style="stop-color:#CBFFFE"/>
	<stop  offset="0.283" style="stop-color:#9AB3C9;stop-opacity:0.7188"/>
	<stop  offset="0.6339" style="stop-color:#605B8A;stop-opacity:0.367"/>
	<stop  offset="0.8811" style="stop-color:#3B2362;stop-opacity:0.1192"/>
	<stop  offset="1" style="stop-color:#2D0D53;stop-opacity:0"/>
</linearGradient>
<path class="st16" d="M608.7,464.8c-14.5,20.8-43.1,26-63.9,11.5c-20.8-14.5-26-43.1-11.5-63.9s43.1-26,63.9-11.5
	C618,415.3,623.2,443.9,608.7,464.8z"/>
<path class="st17" d="M366.8,401.6"/>
<linearGradient id="SVGID_15_" gradientUnits="userSpaceOnUse" x1="44.4929" y1="136.4461" x2="89.9143" y2="82.6819" gradientTransform="matrix(1 0 0 -1 0 502)">
	<stop  offset="0" style="stop-color:#FF543C"/>
	<stop  offset="8.453181e-02" style="stop-color:#F6513E;stop-opacity:0.9366"/>
	<stop  offset="0.2212" style="stop-color:#DE4842;stop-opacity:0.834"/>
	<stop  offset="0.3931" style="stop-color:#B7394A;stop-opacity:0.705"/>
	<stop  offset="0.5934" style="stop-color:#812454;stop-opacity:0.5547"/>
	<stop  offset="0.7995" style="stop-color:#420C60;stop-opacity:0.4"/>
	<stop  offset="1" style="stop-color:#2D0D53;stop-opacity:0"/>
</linearGradient>
<path class="st18" d="M41.7,390.1c0-13,10.5-23.5,23.5-23.5c13,0,23.5,10.5,23.5,23.5s-10.5,23.5-23.5,23.5S41.7,403,41.7,390.1z"/>
<linearGradient id="SVGID_16_" gradientUnits="userSpaceOnUse" x1="251.6341" y1="141.6044" x2="261.6725" y2="129.7223" gradientTransform="matrix(1 0 0 -1 0 502)">
	<stop  offset="0" style="stop-color:#300D5D"/>
	<stop  offset="1" style="stop-color:#2D0D53;stop-opacity:0"/>
</linearGradient>
<path class="st19" d="M261.4,365.8c0,2.9-2.3,5.2-5.2,5.2c-2.9,0-5.2-2.3-5.2-5.2c0-2.9,2.3-5.2,5.2-5.2
	C259.1,360.6,261.4,362.9,261.4,365.8z"/>
<linearGradient id="SVGID_17_" gradientUnits="userSpaceOnUse" x1="246.7113" y1="146.7091" x2="251.7307" y2="140.7677" gradientTransform="matrix(1 0 0 -1 0 502)">
	<stop  offset="0" style="stop-color:#300D5D"/>
	<stop  offset="1" style="stop-color:#2D0D53;stop-opacity:0"/>
</linearGradient>
<path class="st20" d="M251.6,358c0,1.4-1.2,2.6-2.6,2.6c-1.4,0-2.6-1.2-2.6-2.6s1.2-2.6,2.6-2.6C250.4,355.4,251.6,356.6,251.6,358z
	"/>
<g>

		<linearGradient id="SVGID_18_" gradientUnits="userSpaceOnUse" x1="506.8705" y1="452.4524" x2="642.3878" y2="281.7006" gradientTransform="matrix(1 0 0 -1 0 502)">
		<stop  offset="2.475250e-03" style="stop-color:#486BED"/>
		<stop  offset="7.658952e-02" style="stop-color:#4359D1"/>
		<stop  offset="0.2176" style="stop-color:#3B3AA2"/>
		<stop  offset="0.3424" style="stop-color:#362480"/>
		<stop  offset="0.4449" style="stop-color:#32166B"/>
		<stop  offset="0.5124" style="stop-color:#311163"/>
		<stop  offset="0.7697" style="stop-color:#30105D;stop-opacity:0.4724"/>
		<stop  offset="1" style="stop-color:#2D0D53;stop-opacity:0"/>
	</linearGradient>
	<path class="st21" d="M619.3,156.8c-23.4,33.7-69.6,42-103.3,18.6s-42-69.6-18.6-103.3c23.4-33.7,69.6-42,103.3-18.6
		S642.7,123.2,619.3,156.8z"/>

		<linearGradient id="SVGID_19_" gradientUnits="userSpaceOnUse" x1="551.4939" y1="901.8669" x2="587.494" y2="901.8669" gradientTransform="matrix(0.7692 0.639 0.639 -0.7692 -312.6345 622.5208)">
		<stop  offset="0" style="stop-color:#45ECDB"/>
		<stop  offset="0.1094" style="stop-color:#44B9BF;stop-opacity:0.9834"/>
		<stop  offset="0.2542" style="stop-color:#437C9E;stop-opacity:0.9615"/>
		<stop  offset="0.387" style="stop-color:#434C83;stop-opacity:0.9414"/>
		<stop  offset="0.5033" style="stop-color:#422970;stop-opacity:0.9238"/>
		<stop  offset="0.5986" style="stop-color:#421464;stop-opacity:0.9094"/>
		<stop  offset="0.6609" style="stop-color:#420C60;stop-opacity:0.9"/>
		<stop  offset="0.8418" style="stop-color:#400C5F;stop-opacity:0.4199"/>
		<stop  offset="0.9365" style="stop-color:#380C5A;stop-opacity:0.1687"/>
		<stop  offset="1" style="stop-color:#2D0D53;stop-opacity:0"/>
	</linearGradient>
	<path class="st22" d="M687.9,281.2c6.4-7.6,17.7-8.7,25.3-2.3s8.7,17.7,2.3,25.3s-17.7,8.7-25.3,2.3
		C682.6,300.2,681.5,288.8,687.9,281.2z"/>

		<linearGradient id="SVGID_20_" gradientUnits="userSpaceOnUse" x1="576.6722" y1="421.644" x2="607.5816" y2="385.0572" gradientTransform="matrix(1 0 0 -1 0 502)">
		<stop  offset="0" style="stop-color:#300D5D"/>
		<stop  offset="1" style="stop-color:#2D0D53;stop-opacity:0"/>
	</linearGradient>
	<path class="st23" d="M606.7,97c0,8.8-7.2,16-16,16s-16-7.2-16-16s7.2-16,16-16S606.7,88.2,606.7,97z"/>

		<linearGradient id="SVGID_21_" gradientUnits="userSpaceOnUse" x1="563.3914" y1="435.6437" x2="577.735" y2="418.6655" gradientTransform="matrix(1 0 0 -1 0 502)">
		<stop  offset="0" style="stop-color:#300D5D"/>
		<stop  offset="1" style="stop-color:#2D0D53;stop-opacity:0"/>
	</linearGradient>
	<path class="st24" d="M577.3,74.1c0,4.1-3.3,7.4-7.4,7.4c-4.1,0-7.4-3.3-7.4-7.4c0-4.1,3.3-7.4,7.4-7.4
		C574,66.7,577.3,70,577.3,74.1z"/>
</g>
<linearGradient id="SVGID_22_" gradientUnits="userSpaceOnUse" x1="585.6468" y1="90.0569" x2="610.8296" y2="60.2486" gradientTransform="matrix(1 0 0 -1 0 502)">
	<stop  offset="0" style="stop-color:#300D5D"/>
	<stop  offset="1" style="stop-color:#2D0D53;stop-opacity:0"/>
</linearGradient>
<circle class="st25" cx="597.1" cy="425.5" r="13"/>
<linearGradient id="SVGID_23_" gradientUnits="userSpaceOnUse" x1="574.875" y1="101.5032" x2="586.5608" y2="87.6709" gradientTransform="matrix(1 0 0 -1 0 502)">
	<stop  offset="0" style="stop-color:#300D5D"/>
	<stop  offset="1" style="stop-color:#2D0D53;stop-opacity:0"/>
</linearGradient>
<path class="st26" d="M586.2,406.8c0,3.3-2.7,6-6,6s-6-2.7-6-6s2.7-6,6-6S586.2,403.5,586.2,406.8z"/>
<g>

		<linearGradient id="SVGID_24_" gradientUnits="userSpaceOnUse" x1="704.0816" y1="219.121" x2="785.0801" y2="219.121" gradientTransform="matrix(0.9974 7.230000e-02 7.230000e-02 -0.9974 -51.2987 599.417)">
		<stop  offset="0" style="stop-color:#300D5D"/>
		<stop  offset="1" style="stop-color:#2D0D53;stop-opacity:0"/>
	</linearGradient>
	<path class="st27" d="M750.1,402.9l-72.3,69.2c-3.3,3-8.4,2.7-11.4-0.6l0,0c-3-3.3-2.7-8.4,0.6-11.4l76.3-64.8L750.1,402.9z"/>

		<linearGradient id="SVGID_25_" gradientUnits="userSpaceOnUse" x1="706.7703" y1="214.7636" x2="772.2013" y2="214.7636" gradientTransform="matrix(0.9974 7.230000e-02 7.230000e-02 -0.9974 -51.2987 599.417)">
		<stop  offset="0" style="stop-color:#00BFA7"/>
		<stop  offset="7.458021e-02" style="stop-color:#00AAA1"/>
		<stop  offset="0.2276" style="stop-color:#007593"/>
		<stop  offset="0.3441" style="stop-color:#004887"/>
		<stop  offset="0.6312" style="stop-color:#420C60;stop-opacity:0.77"/>
		<stop  offset="1" style="stop-color:#2D0D53;stop-opacity:0"/>
	</linearGradient>
	<path class="st28" d="M736.6,411l-62.5,58.3c-1.7,1.6-4.4,1.4-6-0.3l0,0c-1.6-1.7-1.4-4.4,0.3-6l64.6-56L736.6,411z"/>
	<polygon class="st6" points="671.2,463.1 672.1,465.3 674.4,465.8 672.6,467.3 672.8,469.7 670.8,468.5 668.6,469.4 669.2,467.1
		667.6,465.3 670,465.2 	"/>
</g>
<g>

		<linearGradient id="SVGID_26_" gradientUnits="userSpaceOnUse" x1="37.384" y1="536.7446" x2="118.3826" y2="536.7446" gradientTransform="matrix(0.9974 7.230000e-02 7.230000e-02 -0.9974 -51.2987 599.417)">
		<stop  offset="0" style="stop-color:#300D5D"/>
		<stop  offset="1" style="stop-color:#2D0D53;stop-opacity:0"/>
	</linearGradient>
	<path class="st29" d="M108.1,37.9l-72.3,69.2c-3.3,3-8.4,2.7-11.4-0.6l0,0c-3-3.3-2.7-8.4,0.6-11.4l76.3-64.8L108.1,37.9z"/>

		<linearGradient id="SVGID_27_" gradientUnits="userSpaceOnUse" x1="40.0727" y1="532.3871" x2="105.5037" y2="532.3871" gradientTransform="matrix(0.9974 7.230000e-02 7.230000e-02 -0.9974 -51.2987 599.417)">
		<stop  offset="0" style="stop-color:#00BFA7"/>
		<stop  offset="7.458021e-02" style="stop-color:#00AAA1"/>
		<stop  offset="0.2276" style="stop-color:#007593"/>
		<stop  offset="0.3441" style="stop-color:#004887"/>
		<stop  offset="0.6312" style="stop-color:#420C60;stop-opacity:0.77"/>
		<stop  offset="1" style="stop-color:#2D0D53;stop-opacity:0"/>
	</linearGradient>
	<path class="st30" d="M94.6,46l-62.5,58.3c-1.7,1.6-4.4,1.4-6-0.3l0,0c-1.6-1.7-1.4-4.4,0.3-6L91,42L94.6,46z"/>
	<polygon class="st6" points="29.2,98.1 30.1,100.3 32.4,100.8 30.6,102.3 30.8,104.7 28.8,103.5 26.6,104.4 27.2,102.1 25.6,100.3
		28,100.2 	"/>
</g>
<g class="st31">
	<g>

			<linearGradient id="SVGID_28_" gradientUnits="userSpaceOnUse" x1="46.6768" y1="301.5069" x2="89.03" y2="301.5069" gradientTransform="matrix(0.9883 0.1525 0.1525 -0.9883 -63.1411 569.4728)">
			<stop  offset="0" style="stop-color:#300D5D"/>
			<stop  offset="1" style="stop-color:#2D0D53;stop-opacity:0"/>
		</linearGradient>
		<path class="st32" d="M73.6,267.1l-40.6,33c-1.9,1.4-4.5,1.1-5.9-0.8l0,0c-1.4-1.9-1.1-4.5,0.8-5.9l42.4-30.6L73.6,267.1z"/>
		<polygon class="st1" points="31,292.6 32.3,295 34.8,296.3 32.3,297.7 31,300.1 29.7,297.7 27.3,296.3 29.7,295 		"/>

			<linearGradient id="SVGID_29_" gradientUnits="userSpaceOnUse" x1="30.4" y1="216.45" x2="59.5514" y2="216.45" gradientTransform="matrix(1 0 0 -1 0 502)">
			<stop  offset="0" style="stop-color:#B7BED0"/>
			<stop  offset="4.929113e-02" style="stop-color:#ABAEC5;stop-opacity:0.9507"/>
			<stop  offset="0.22" style="stop-color:#857EA3;stop-opacity:0.78"/>
			<stop  offset="0.3894" style="stop-color:#655586;stop-opacity:0.6106"/>
			<stop  offset="0.5545" style="stop-color:#4D3670;stop-opacity:0.4455"/>
			<stop  offset="0.714" style="stop-color:#3B1F60;stop-opacity:0.286"/>
			<stop  offset="0.8653" style="stop-color:#311256;stop-opacity:0.1347"/>
			<stop  offset="1" style="stop-color:#2D0D53;stop-opacity:0"/>
		</linearGradient>
		<path class="st33" d="M58.3,274.1c-0.6,0-27.9,19.2-27.9,19.2L31,297h3.1l25.4-21.7L58.3,274.1z"/>
	</g>
</g>
<linearGradient id="SVGID_30_" gradientUnits="userSpaceOnUse" x1="572.2002" y1="502.8395" x2="629.5077" y2="502.8395" gradientTransform="matrix(0.9788 0.2048 0.2048 -0.9788 -78.3467 557.8168)">
	<stop  offset="0" style="stop-color:#300D5D"/>
	<stop  offset="1" style="stop-color:#2D0D53;stop-opacity:0"/>
</linearGradient>
<path class="st34" d="M584.7,182.8c3.2-15.5,18.4-25.4,33.9-22.2s25.4,18.4,22.2,33.9s-18.4,25.4-33.9,22.2
	C591.4,213.5,581.5,198.3,584.7,182.8z"/>
<linearGradient id="SVGID_31_" gradientUnits="userSpaceOnUse" x1="619.9374" y1="332.3633" x2="634.8201" y2="314.7469" gradientTransform="matrix(1 0 0 -1 0 502)">
	<stop  offset="0" style="stop-color:#300D5D"/>
	<stop  offset="1" style="stop-color:#2D0D53;stop-opacity:0"/>
</linearGradient>
<path class="st35" d="M634.4,177.6c0,4.3-3.4,7.7-7.7,7.7s-7.7-3.4-7.7-7.7c0-4.3,3.4-7.7,7.7-7.7
	C631,169.9,634.4,173.3,634.4,177.6z"/>
<linearGradient id="SVGID_32_" gradientUnits="userSpaceOnUse" x1="613.5385" y1="339.1007" x2="620.4453" y2="330.9254" gradientTransform="matrix(1 0 0 -1 0 502)">
	<stop  offset="0" style="stop-color:#300D5D"/>
	<stop  offset="1" style="stop-color:#2D0D53;stop-opacity:0"/>
</linearGradient>
<path class="st36" d="M620.3,166.6c0,2-1.6,3.6-3.6,3.6s-3.6-1.6-3.6-3.6s1.6-3.6,3.6-3.6S620.3,164.6,620.3,166.6z"/>
</svg>
